<?xml version="1.0" standalone="no"?><!DOCTYPE svg PUBLIC "-//W3C//DTD SVG 1.1//EN" "http://www.w3.org/Graphics/SVG/1.1/DTD/svg11.dtd" ><svg xmlns="http://www.w3.org/2000/svg"><metadata></metadata><defs><font id="fonteditor" horiz-adv-x="1000"><font-face font-family="SN^·ZZOSW5" font-weight="400" font-stretch="normal" units-per-em="1000" panose-1="4 11 5 9 0 0 0 0 0 0" ascent="860" descent="-140" x-height="0" bbox="28 -123 915 756" underline-thickness="50" underline-position="-110" unicode-range="U+0021-ff0c" /><missing-glyph horiz-adv-x="1000"  /><glyph glyph-name="exclam" unicode="!" d="M332 669 Q332 589 322 461 Q309 301 290 246 Q286 245 268 245 Q237 245 230 249 Q228 265 228 294 Q228 523 263 722 Q271 723 280 723 Q313 723 331 715 Q332 696 332 669 ZM320 105 Q320 88 304 50 Q288 11 276 -1 Q212 14 168 46 Q176 84 212 148 Q256 146 320 105 Z" /><glyph glyph-name="zero" unicode="0" d="M471 329 Q471 215 421 118 Q359 0 256 0 Q133 0 74 121 Q29 213 29 350 Q29 483 72 583 Q130 716 246 716 Q277 716 315 696 Q353 676 369 651 Q359 631 327 607 Q281 645 245 645 Q166 645 127 527 Q99 443 99 343 Q99 244 129 171 Q171 70 255 70 Q323 70 369 174 Q407 259 407 339 Q407 417 396 466 Q385 515 352 584 Q378 604 404 612 Q446 543 460 474 Q471 422 471 329 Z" /><glyph glyph-name="four" unicode="4" d="M469 154 Q450 144 381 130 L371 3 Q352 1 345 1 Q338 1 318 5 Q318 22 321 121 Q279 115 208 115 Q108 115 32 135 Q32 405 118 715 Q156 713 174 703 Q161 640 137 515 Q101 321 95 192 Q115 182 207 182 Q272 182 324 188 L344 440 Q365 441 373 441 Q381 441 400 437 Q400 363 385 195 Q440 203 464 207 Q468 190 469 180 Q470 165 469 154 Z" /><glyph glyph-name="F" unicode="f" d="M470 669 Q470 650 466 631 Q84 631 35 647 Q32 658 32 679 Q32 696 36 707 Q87 710 148 710 Q404 710 469 689 Q470 681 470 669 ZM446 302 Q446 296 443 275 Q434 273 374 273 Q256 273 178 286 Q176 300 176 315 Q176 324 179 345 L272 345 Q354 345 445 332 Q446 324 446 302 ZM124 12 Q116 7 93 7 Q73 7 61 11 Q50 222 50 354 Q50 455 54 514 Q75 516 83 516 Q105 516 113 514 Q115 501 119 325 Q124 126 124 12 Z" /><glyph glyph-name="N" unicode="n" d="M468 274 Q468 32 446 33 Q410 34 335 129 Q228 264 134 506 Q162 526 184 529 Q229 431 292 319 Q363 193 399 158 Q404 161 404 224 Q404 383 385 670 Q395 673 416 677 Q428 679 446 677 Q468 562 468 274 ZM108 710 Q111 664 107 354 Q103 52 99 4 Q91 0 70 -1 Q56 -2 41 2 Q33 108 33 287 Q33 639 46 710 Q56 712 77 714 Q94 715 108 710 Z" /><glyph glyph-name="O" unicode="o" d="M472 329 Q472 256 442 172 Q407 72 354 48 Q340 58 318 93 Q361 127 385 204 Q406 269 406 334 Q406 415 400 455 Q391 514 362 569 Q383 589 412 600 Q472 507 472 329 ZM375 660 Q365 635 337 610 Q287 641 246 641 Q167 641 126 528 Q97 446 97 349 Q97 244 120 174 Q155 67 238 67 Q262 67 288 77 Q295 59 299 18 Q271 0 219 0 Q154 0 100 74 Q29 172 29 360 Q29 484 74 583 Q133 712 242 712 Q311 712 375 660 Z" /><glyph glyph-name="d" unicode="d" d="M472 293 Q475 29 467 5 Q460 0 442 0 Q418 0 412 3 Q402 29 402 311 Q402 556 409 580 Q418 583 438 583 Q455 583 465 581 Q470 549 472 293 ZM383 64 Q326 0 225 0 Q137 0 81 63 Q28 123 28 212 Q28 297 90 358 Q153 420 238 420 Q272 420 315 407 Q363 391 382 369 Q375 332 360 325 Q310 346 300 349 Q273 357 233 357 Q172 357 130 309 Q92 265 92 209 Q92 151 130 106 Q168 62 225 62 Q272 62 359 104 Q373 88 383 64 Z" /><glyph glyph-name="n" unicode="n" d="M471 234 Q471 199 458 113 Q443 18 431 1 Q404 -3 379 14 Q409 186 409 228 Q409 284 373 319 Q337 354 281 354 Q245 354 146 319 Q125 340 125 364 Q146 389 204 404 Q251 417 293 417 Q366 417 418 362 Q471 307 471 234 ZM108 33 Q108 11 107 6 Q97 1 79 1 Q62 1 50 4 Q43 30 35 201 Q29 349 29 413 Q38 417 58 417 Q70 417 86 413 Q93 374 101 218 Q108 78 108 33 Z" /><glyph glyph-name="o" unicode="o" d="M470 200 Q470 149 437 104 Q404 58 356 41 Q343 60 333 85 Q365 103 389 134 Q414 169 414 203 Q414 268 362 322 Q374 337 397 359 Q470 297 470 200 ZM347 392 Q341 357 327 343 Q278 364 239 364 Q176 364 134 315 Q91 266 91 202 Q91 150 135 104 Q179 57 231 57 Q260 57 292 63 Q303 35 303 14 Q278 -1 226 -1 Q149 -1 90 62 Q30 126 30 203 Q30 291 89 356 Q148 422 235 422 Q302 422 347 392 Z" /><glyph glyph-name="p" unicode="p" d="M468 198 Q468 100 406 50 Q349 4 250 4 Q211 4 182 11 Q179 24 179 43 Q179 60 183 72 Q288 72 329 86 Q403 113 403 199 Q403 270 306 314 Q238 344 149 353 Q147 364 147 382 Q147 401 151 412 Q269 411 358 364 Q468 305 468 198 ZM102 275 Q102 251 100 122 Q97 -59 93 -120 Q90 -123 66 -123 Q45 -123 37 -118 Q32 18 32 184 Q32 331 43 414 Q52 415 65 415 Q75 415 98 411 Q102 341 102 275 Z" /><glyph glyph-name="s" unicode="s" d="M439 362 Q439 352 431 336 Q423 320 415 316 Q287 357 216 357 Q127 357 127 311 Q127 286 185 260 Q273 220 294 206 Q352 166 352 106 Q352 58 310 27 Q272 0 222 0 Q131 0 65 77 Q75 99 103 115 Q168 62 220 62 Q241 62 261 74 Q285 87 285 107 Q285 148 227 177 Q194 194 123 226 Q61 255 61 312 Q61 367 116 395 Q159 418 219 418 Q263 418 334 402 Q417 384 439 362 Z" /><glyph glyph-name="t" unicode="t" d="M470 352 Q470 337 466 326 Q428 325 372 325 Q334 325 299 326 Q264 328 266 328 Q243 168 243 79 Q243 66 254 63 Q257 62 276 62 Q276 62 376 67 Q382 57 382 32 Q382 21 382 21 Q332 0 232 0 Q184 0 180 7 Q172 22 172 73 Q172 155 193 330 Q133 333 34 339 Q31 355 31 366 Q31 375 35 394 Q81 398 205 398 Q212 440 237 550 Q264 550 294 540 Q294 525 287 474 Q278 415 277 398 Q374 391 468 376 Q470 370 470 352 Z" /><glyph glyph-name="u" unicode="u" d="M472 34 Q450 16 419 16 Q412 31 406 58 Q378 32 318 16 Q265 1 221 1 Q116 1 70 61 Q30 114 29 222 Q29 283 70 417 Q96 415 122 399 Q93 270 93 227 Q93 148 117 112 Q147 68 222 68 Q319 68 389 130 L349 395 Q360 409 401 409 Q412 385 442 227 Q470 74 472 34 Z" /><glyph glyph-name="ellipsis" unicode="&#x2026;" d="M913 392 Q913 374 896 335 Q880 296 867 283 Q798 299 754 331 Q762 369 800 437 Q846 435 913 392 ZM579 392 Q579 374 562 335 Q546 296 533 283 Q465 299 421 331 Q429 369 467 437 Q512 435 579 392 ZM246 392 Q246 374 230 335 Q213 296 200 283 Q131 299 87 331 Q95 369 133 437 Q179 435 246 392 Z" /><glyph glyph-name="uni4E00" unicode="&#x4e00;" d="M176 416 Q481 416 782 405 Q782 393 782 373 Q782 349 778 337 Q400 337 174 344 Q170 352 170 380 Q170 398 176 416 Z" /><glyph glyph-name="uni4E0D" unicode="&#x4e0d;" d="M122 690 Q501 690 874 666 L874 636 Q874 613 870 602 Q400 602 120 621 Q117 629 117 655 Q117 672 122 690 ZM450 555 Q479 539 503 517 Q430 422 352 330 Q236 176 192 147 Q160 159 139 192 Q218 292 296 384 Q401 506 450 555 ZM549 317 Q586 195 609 -3 Q587 -18 494 -18 Q478 -6 478 28 Q494 31 529 39 Q506 173 485 307 Q513 317 549 317 ZM740 281 Q819 253 893 219 Q884 191 866 162 Q776 183 714 219 Q726 256 740 281 Z" /><glyph glyph-name="uni4E86" unicode="&#x4e86;" d="M189 689 Q449 683 761 663 Q722 505 617 329 Q652 142 660 -13 Q625 -24 582 -24 Q537 -24 494 -18 L494 36 Q535 40 583 40 Q554 190 537 333 Q593 462 662 591 Q431 601 187 614 Q183 626 183 652 Q183 685 189 689 Z" /><glyph glyph-name="uni4ED6" unicode="&#x4ed6;" d="M896 483 Q900 398 900 307 Q876 305 835 305 Q831 360 829 417 Q786 415 745 413 Q743 321 734 247 Q726 243 701 243 Q681 243 673 247 Q669 323 668 409 Q599 406 532 404 Q535 263 538 123 Q618 123 706 122 L706 91 Q706 70 702 58 Q557 58 477 61 Q466 225 463 402 Q432 401 403 400 Q397 433 397 466 Q429 468 462 471 Q461 530 461 591 Q493 595 528 595 Q529 534 531 475 Q598 478 668 480 Q669 565 673 655 Q689 659 707 659 Q726 659 740 655 Q745 561 746 482 Q819 483 896 483 ZM352 525 Q366 500 366 467 Q302 443 241 425 Q274 291 289 148 Q259 139 226 139 Q192 272 173 406 Q129 395 86 387 Q75 412 75 442 Q215 511 352 525 Z" /><glyph glyph-name="uni4EE5" unicode="&#x4ee5;" d="M233 581 Q265 398 275 215 Q341 229 406 241 Q416 212 423 177 Q331 150 144 116 Q134 146 129 183 Q167 192 204 200 Q176 385 166 571 Q197 577 233 581 ZM436 643 Q517 603 608 537 Q598 513 578 485 Q485 523 402 591 Q420 621 436 643 ZM813 589 Q845 575 870 555 Q804 427 727 298 Q710 267 695 240 Q784 194 880 128 Q870 104 850 76 Q750 115 661 180 Q647 157 635 137 Q616 102 599 76 Q584 50 566 28 Q526 41 509 69 Q548 140 650 320 Q727 450 813 589 Z" /><glyph glyph-name="uni4EEC" unicode="&#x4eec;" d="M303 518 Q323 494 325 465 Q284 436 237 415 Q263 291 275 157 Q246 148 212 148 Q186 268 171 388 Q137 376 101 368 Q82 388 74 421 Q175 481 303 518 ZM498 709 Q550 683 604 650 Q598 634 588 620 Q581 605 569 591 Q512 609 461 649 Q475 684 498 709 ZM709 610 Q801 603 896 586 Q902 422 902 297 Q902 117 892 20 Q855 18 819 18 Q782 18 754 22 Q748 33 748 49 Q748 63 750 72 Q791 74 830 74 Q832 302 832 528 Q770 537 706 552 L706 581 Q706 593 709 610 ZM424 471 Q440 471 453 468 Q459 263 459 26 Q448 22 430 22 Q414 22 399 24 Q392 111 392 260 Q392 418 395 468 Q408 471 424 471 Z" /><glyph glyph-name="uni4F46" unicode="&#x4f46;" d="M642 641 Q762 641 841 633 Q845 478 845 300 Q845 256 839 220 Q800 214 719 214 Q546 214 422 223 Q418 371 418 557 Q418 589 422 635 Q514 641 642 641 ZM487 578 L487 469 Q598 464 713 452 Q713 428 708 400 Q589 400 487 414 L487 275 L773 275 L773 578 L487 578 ZM881 101 Q885 89 885 71 Q885 48 883 38 Q645 26 395 24 Q391 53 391 84 Q608 94 881 101 ZM337 532 Q357 509 359 480 Q307 445 246 420 Q270 292 282 154 Q253 145 219 145 Q194 269 179 395 Q144 383 108 375 Q88 395 81 428 Q193 493 337 532 Z" /><glyph glyph-name="uni53EF" unicode="&#x53ef;" d="M119 690 Q506 676 894 654 Q900 637 900 617 Q900 602 894 585 Q500 590 119 619 Q114 638 114 655 Q114 673 119 690 ZM770 407 Q818 209 826 16 Q791 -2 684 -2 Q679 22 679 49 Q713 53 750 58 Q729 232 707 398 Q734 404 770 407 ZM278 370 Q401 370 501 364 Q508 331 508 190 Q508 80 499 63 Q454 50 336 50 Q218 50 167 70 Q159 114 159 183 Q159 263 165 340 Q181 344 201 344 Q219 344 233 340 Q237 212 237 117 Q256 111 336 111 Q412 111 432 114 Q436 144 436 190 Q436 238 434 303 Q349 303 278 312 Q274 322 274 343 Q274 360 278 370 Z" /><glyph glyph-name="uni56DE" unicode="&#x56de;" d="M615 474 Q630 362 630 244 Q522 222 391 220 Q368 293 362 452 Q478 474 615 474 ZM450 281 L562 292 L550 413 L436 404 L450 281 ZM606 680 Q737 680 847 666 Q855 477 855 324 Q855 124 841 31 Q720 22 520 22 Q266 22 169 27 Q154 264 151 554 Q165 559 184 559 Q207 559 220 554 Q230 318 238 88 Q513 88 775 90 L775 604 Q689 609 592 612 Q424 608 284 608 Q280 623 280 637 Q280 656 282 668 Q393 678 606 680 Z" /><glyph glyph-name="uni5BB6" unicode="&#x5bb6;" d="M329 488 Q480 488 680 471 Q680 442 674 408 Q499 408 328 428 L328 461 Q328 475 329 488 ZM389 401 Q411 380 425 350 Q372 315 315 285 Q284 268 259 253 Q229 236 200 222 Q175 247 164 274 Q187 293 217 312 Q244 329 271 344 Q299 359 328 374 Q357 387 389 401 ZM552 347 Q596 164 616 -21 Q590 -33 549 -33 Q509 -33 471 -22 Q469 -11 469 1 L469 28 Q516 22 540 22 Q519 179 484 333 Q519 347 552 347 ZM228 207 Q258 199 290 185 Q268 108 228 29 Q194 37 170 57 Q197 139 228 207 ZM355 151 Q386 143 418 128 Q402 67 374 5 Q339 13 315 33 Q333 97 355 151 ZM814 330 Q837 299 842 270 Q769 242 678 221 Q653 255 653 284 Q740 312 814 330 ZM711 129 Q782 111 844 79 Q835 51 814 21 Q757 33 685 65 Q694 99 711 129 ZM177 672 Q194 672 209 666 Q209 571 198 452 Q186 448 164 448 Q141 448 131 456 Q131 597 143 670 Q158 672 177 672 ZM306 675 Q397 675 485 673 Q479 711 478 748 Q489 754 510 756 Q534 756 543 752 Q550 713 551 671 Q702 668 847 661 Q857 564 857 476 Q847 472 829 472 Q816 472 796 474 Q789 514 781 600 Q547 600 308 614 Q304 628 304 647 Q304 660 306 675 Z" /><glyph glyph-name="uni5E2E" unicode="&#x5e2e;" d="M311 754 Q345 752 374 748 Q370 717 366 688 Q410 691 455 694 Q467 663 467 634 Q412 625 356 620 Q351 586 345 553 Q400 556 455 558 Q458 531 458 499 Q394 493 334 490 Q328 454 321 418 Q405 422 492 422 Q494 410 494 395 L494 365 Q398 356 307 351 Q295 295 282 243 Q249 247 219 251 Q226 301 233 348 Q174 346 118 346 Q112 375 112 406 Q177 412 244 415 Q250 452 256 486 Q200 484 148 484 Q142 511 142 540 Q204 545 268 549 Q274 581 281 613 Q227 609 173 607 Q163 636 161 666 Q225 675 295 682 Q303 719 311 754 ZM581 682 Q731 678 875 650 Q873 591 816 504 Q860 455 889 351 Q821 312 721 304 Q708 323 706 360 Q745 373 805 388 Q776 436 732 485 Q760 542 786 596 Q672 602 575 617 Q575 654 581 682 ZM624 454 Q665 344 669 256 Q653 247 616 247 Q568 335 568 449 Q597 454 624 454 ZM325 183 Q351 94 361 5 Q338 -4 302 -4 Q276 86 266 176 Q294 182 325 183 ZM513 259 Q533 259 543 255 Q547 235 550 216 Q668 210 788 198 Q789 117 789 49 Q789 19 777 0 Q721 -6 643 -6 Q638 19 638 45 Q678 48 723 50 Q724 81 724 137 Q640 143 559 150 Q572 46 572 -69 Q561 -73 541 -73 Q517 -73 509 -71 Q490 49 485 156 Q426 161 369 166 Q367 178 367 196 Q367 210 371 224 Q427 222 483 220 Q482 238 482 254 Q487 257 513 259 Z" /><glyph glyph-name="uni60A8" unicode="&#x60a8;" d="M301 212 Q333 194 353 172 Q329 136 297 102 Q282 85 264 68 Q248 50 230 33 Q202 51 182 77 Q233 147 301 212 ZM434 150 Q454 150 467 148 Q471 105 477 60 Q538 60 608 64 Q614 50 614 34 Q614 15 612 3 Q588 -7 514 -7 Q438 -7 417 -1 Q403 75 403 146 Q422 150 434 150 ZM566 245 Q606 195 623 155 Q608 142 577 129 Q544 164 518 220 Q539 237 566 245 ZM760 203 Q784 158 793 111 Q764 100 735 100 Q713 145 706 192 Q733 201 760 203 ZM213 525 Q173 513 130 504 Q111 523 103 557 Q208 611 343 645 Q363 621 365 592 Q325 568 279 549 Q300 457 310 357 Q281 348 248 348 Q225 436 213 525 ZM483 734 Q518 728 545 711 Q536 693 529 678 Q681 675 840 662 Q840 594 832 541 Q819 537 801 537 Q782 537 770 545 L770 601 Q631 605 497 618 Q468 567 447 541 Q409 547 386 565 Q434 655 483 734 ZM638 542 Q666 362 666 284 Q638 275 602 275 Q571 275 547 279 Q540 300 540 321 Q562 329 594 329 Q584 434 578 536 Q608 542 638 542 ZM442 448 Q474 439 507 425 Q483 370 440 314 Q405 323 380 343 Q408 400 442 448 ZM781 438 Q803 413 812 362 Q784 347 756 344 Q731 376 726 423 Q750 434 781 438 Z" /><glyph glyph-name="uni6211" unicode="&#x6211;" d="M525 743 Q539 713 539 679 Q343 633 144 603 Q130 633 126 665 Q312 709 525 743 ZM817 439 Q821 427 821 409 Q821 385 819 375 Q746 370 675 367 Q704 305 739 232 Q780 259 824 283 Q850 265 859 241 Q816 200 773 164 Q799 113 826 60 Q847 74 868 82 Q883 67 889 41 Q856 10 793 -9 Q757 36 714 119 Q667 85 620 56 Q595 74 581 97 Q625 145 679 188 Q641 265 599 364 Q494 359 389 357 Q400 290 409 225 Q445 229 480 232 Q484 199 484 170 Q450 165 416 160 Q426 73 432 -13 Q380 -29 296 -29 Q287 -12 286 18 Q324 24 362 26 Q353 90 344 150 Q244 138 145 132 Q137 159 137 194 Q237 208 334 218 Q324 288 314 355 Q236 353 159 352 Q155 382 155 414 Q228 418 304 421 Q298 465 292 507 Q328 517 359 517 Q369 471 378 424 Q472 428 571 431 Q560 457 549 484 Q578 496 615 504 Q628 471 645 433 Q730 436 817 439 ZM774 655 Q845 625 909 574 Q896 544 873 524 Q800 559 742 606 Q757 634 774 655 Z" /><glyph glyph-name="uni627E" unicode="&#x627e;" d="M836 516 Q838 504 838 488 L838 459 Q750 446 663 440 Q689 376 717 315 Q767 349 817 382 Q841 363 854 334 Q812 288 751 242 Q781 176 812 114 Q848 135 883 159 Q905 136 909 112 Q852 58 783 34 Q734 113 691 198 Q621 151 535 102 Q511 126 500 152 Q572 212 655 272 Q618 352 586 435 Q518 431 450 431 Q444 460 444 491 Q502 499 560 504 Q537 567 517 632 Q544 649 578 657 Q605 582 634 510 Q733 516 836 516 ZM754 730 Q807 678 848 616 Q826 596 795 581 Q738 635 701 695 Q723 713 754 730 ZM200 502 Q196 563 194 623 Q225 629 258 631 Q264 566 270 502 Q346 501 393 495 Q397 486 397 465 Q397 442 393 435 Q381 431 276 430 Q281 359 285 291 Q334 296 379 296 Q383 284 383 271 Q383 255 379 243 Q349 232 289 221 Q293 155 296 89 Q271 79 232 79 Q226 146 220 211 Q173 204 115 198 Q101 220 101 259 Q160 274 215 282 Q209 358 204 430 Q101 431 90 435 Q86 447 86 467 Q86 484 92 498 Q142 501 200 502 Z" /><glyph glyph-name="uni6765" unicode="&#x6765;" d="M136 337 Q294 337 450 335 L450 383 Q450 483 451 556 Q307 558 200 563 Q197 571 197 597 Q197 613 202 630 Q330 630 453 627 Q455 707 459 747 Q473 751 492 751 Q510 751 524 747 Q526 686 528 626 Q657 623 783 617 L783 587 Q783 565 779 554 Q643 554 530 555 Q532 446 534 334 Q685 332 833 328 L833 298 Q833 276 829 265 Q669 265 535 266 Q537 121 537 -31 Q525 -35 504 -35 Q486 -35 470 -33 Q455 85 451 266 Q269 267 134 270 Q130 278 130 304 Q130 320 136 337 ZM378 222 Q401 199 412 171 Q316 94 191 22 Q165 43 154 69 Q250 148 378 222 ZM691 514 Q714 508 738 498 Q717 404 659 347 Q641 347 614 360 Q632 440 691 514 ZM301 528 Q322 488 338 448 Q356 409 368 375 Q344 358 315 352 Q272 427 247 507 Q276 521 301 528 ZM626 209 Q721 162 815 106 Q804 82 782 56 Q677 99 595 151 Q610 183 626 209 Z" /><glyph glyph-name="uni7684" unicode="&#x7684;" d="M226 521 Q239 520 251 520 Q278 580 321 635 Q356 627 379 610 Q361 562 331 514 Q393 508 447 501 Q447 211 427 73 Q404 63 304 63 Q202 63 131 84 Q116 253 112 483 Q145 487 178 487 Q183 410 187 331 Q204 332 228 332 Q276 332 303 330 Q307 316 307 299 Q307 284 305 271 Q280 266 224 266 Q205 266 190 267 Q193 203 195 139 Q289 130 369 130 Q369 249 376 441 Q293 446 224 462 Q224 493 226 521 ZM659 616 Q685 607 710 587 Q684 527 654 465 Q768 457 883 445 Q883 263 872 103 Q848 97 816 97 Q783 97 759 101 Q757 128 757 149 Q789 151 815 151 Q817 261 821 390 Q717 397 625 405 Q596 350 566 295 Q534 303 508 330 Q578 478 659 616 ZM565 237 Q619 211 680 170 Q670 146 650 118 Q587 142 531 185 Q549 215 565 237 Z" /><glyph glyph-name="uni8BBF" unicode="&#x8bbf;" d="M461 542 Q689 536 915 506 Q915 476 909 448 Q782 448 659 458 Q641 395 621 334 Q743 320 865 300 Q865 159 852 36 Q828 30 793 30 Q757 30 731 34 Q729 64 729 87 Q763 90 791 90 Q793 161 797 245 Q694 258 601 273 Q564 164 522 58 Q487 60 456 85 Q518 277 588 464 Q520 471 454 480 Q454 512 461 542 ZM640 699 Q709 676 772 636 Q759 604 733 583 Q662 610 606 646 Q621 676 640 699 ZM138 476 Q226 464 323 444 Q317 285 297 130 Q334 126 374 122 Q374 100 370 70 Q305 70 227 80 Q235 231 255 388 Q192 398 130 416 Q130 446 138 476 ZM205 652 Q274 644 357 599 Q351 573 337 549 Q252 555 187 601 Q194 629 205 652 Z" /><glyph glyph-name="uni8D77" unicode="&#x8d77;" d="M611 374 Q643 374 672 371 L672 361 Q732 366 820 368 Q816 424 816 480 Q695 496 567 511 Q567 539 573 569 Q804 557 877 538 Q886 487 886 430 Q886 343 879 312 Q837 302 672 301 Q671 203 669 187 Q713 181 801 177 Q801 142 798 123 Q782 118 709 118 Q644 119 609 131 Q602 131 602 280 Q602 316 611 374 ZM292 633 Q294 681 296 728 Q311 732 328 732 Q346 732 359 728 Q362 678 364 633 Q453 632 507 625 Q510 616 510 595 Q510 571 507 564 Q493 559 365 559 L365 544 Q365 492 360 450 Q483 449 538 444 Q540 433 540 417 L540 388 Q517 381 365 380 Q367 342 367 307 Q425 305 492 296 Q492 265 482 239 Q413 239 368 246 Q369 209 369 173 Q357 167 334 167 Q315 167 302 169 Q292 273 291 380 Q172 380 120 388 Q116 402 116 419 Q116 437 118 448 Q190 450 295 450 Q291 492 291 539 L291 559 Q170 560 156 564 Q153 577 153 597 Q153 615 158 629 Q221 632 292 633 ZM172 263 Q203 255 233 243 Q215 180 198 116 Q354 88 504 61 Q502 34 489 2 Q299 25 118 70 Q141 171 172 263 Z" /><glyph glyph-name="uni95EE" unicode="&#x95ee;" d="M336 738 Q393 706 452 664 Q446 649 436 635 Q428 619 417 606 Q355 628 299 678 Q313 713 336 738 ZM212 488 Q228 488 241 485 Q252 250 252 -23 Q241 -27 224 -27 Q208 -27 194 -25 Q177 75 177 247 Q177 428 184 485 Q197 488 212 488 ZM599 625 Q721 616 849 596 Q855 432 855 307 Q855 108 845 0 Q816 -2 787 -2 Q749 -2 722 2 Q716 14 716 29 Q716 43 718 53 Q751 55 783 55 Q785 297 785 537 Q692 549 595 567 L595 596 Q595 608 599 625 ZM633 423 Q639 301 639 179 Q508 169 381 169 Q366 299 362 415 Q493 423 633 423 ZM430 358 L438 232 L575 238 L571 362 L430 358 Z" /><glyph glyph-name="uni9762" unicode="&#x9762;" d="M153 684 Q511 684 863 661 L863 631 Q863 609 859 598 Q697 598 563 600 Q544 540 506 500 Q483 500 447 517 Q456 561 478 602 Q290 607 151 617 Q148 625 148 650 Q148 667 153 684 ZM310 476 Q568 476 835 456 Q843 359 843 272 Q843 76 831 10 Q747 -5 479 -5 Q216 6 171 30 Q164 69 164 151 Q170 293 190 444 Q225 444 254 441 Q244 258 238 80 Q356 65 496 61 Q753 61 767 75 Q765 233 765 391 Q711 393 660 396 Q651 252 628 107 Q620 103 595 103 Q574 103 561 109 Q570 263 591 399 Q512 403 436 408 Q436 369 436 330 Q451 330 468 330 Q511 330 535 329 Q539 317 539 300 Q539 286 537 273 Q514 267 464 267 Q447 267 435 268 Q434 246 434 224 Q483 222 537 214 Q537 184 527 159 Q472 159 432 163 Q431 140 430 116 Q418 112 395 112 Q372 112 362 120 Q362 309 367 413 Q335 415 306 417 Q304 428 304 445 Q304 461 310 476 Z" /><glyph glyph-name="uni9875" unicode="&#x9875;" d="M207 734 Q504 728 798 697 Q798 664 791 634 Q654 634 519 641 Q494 574 476 544 Q437 544 413 560 Q425 608 442 646 Q319 653 200 666 Q200 701 207 734 ZM239 509 Q270 509 305 504 Q305 339 282 191 Q250 191 216 195 Q216 348 239 509 ZM388 523 Q576 521 777 503 Q777 333 768 200 Q752 195 732 195 Q709 195 695 205 L695 435 Q538 439 388 456 Q383 469 383 491 Q383 508 388 523 ZM492 385 Q533 377 562 360 Q515 258 459 157 Q607 111 739 33 Q731 6 710 -23 Q581 12 424 94 Q385 26 342 -42 Q305 -36 278 -13 Q377 196 492 385 Z" /><glyph glyph-name="uniFF01" unicode="&#xff01;" d="M582 668 Q582 588 572 460 Q559 300 540 245 Q535 244 517 244 Q488 244 480 248 Q478 264 478 293 Q478 522 513 721 Q520 722 529 722 Q563 722 581 714 Q582 695 582 668 ZM570 104 Q570 87 554 48 Q538 10 526 -2 Q462 13 418 45 Q426 83 462 147 Q506 145 570 104 Z" /><glyph glyph-name="uniFF0C" unicode="&#xff0c;" d="M324 81 Q324 -15 278 -100 Q247 -100 233 -88 Q241 -42 248 13 Q199 29 177 56 Q184 107 225 148 Q240 148 274 135 Q305 124 321 114 Q324 101 324 81 Z" /></font>
</defs>
</svg>
